<svg xmlns="http://www.w3.org/2000/svg" width="24" height="24" viewBox="0 0 512 512">
  <g id="Dentist_Appointment">
    <path d="M193.7891,382.3278a24.3162,24.3162,0,0,0,47.1308,2.4258l10.5469-34.67a4.7387,4.7387,0,0,1,9.0664,0l10.5459,34.67a24.3168,24.3168,0,0,0,47.1318-2.4258l17.13-87.8965a59.9338,59.9338,0,0,0-25.5039-61.3486v-.001a42.1259,42.1259,0,0,0-43.291-1.9287,23.019,23.019,0,0,1-21.0908,0,42.1231,42.1231,0,0,0-43.292,1.93A59.9354,59.9354,0,0,0,176.6582,294.43Zm17.292-135.9609a26.1581,26.1581,0,0,1,26.8769-1.0791,39.013,39.013,0,0,0,36.085,0,26.1494,26.1494,0,0,1,26.8759,1.0781A43.9712,43.9712,0,0,1,319.6367,291.37l-17.1308,87.8975a8.3165,8.3165,0,0,1-16.1192.83l-10.5469-34.67a20.7375,20.7375,0,0,0-39.68,0l-10.5479,34.67a8.3158,8.3158,0,0,1-16.1182-.83l-17.1318-87.8985A43.97,43.97,0,0,1,211.0811,246.3669Z"/>
    <path d="M364.6221,99.63h-6.9895V81.6612A31.2382,31.2382,0,0,0,326.43,50.4584h-4.3a31.2383,31.2383,0,0,0-31.2029,31.2028V99.63h-69.853V81.6612a31.2383,31.2383,0,0,0-31.2029-31.2028h-4.3a31.2382,31.2382,0,0,0-31.2028,31.2028V99.63h-6.9895a72.4164,72.4164,0,0,0-72.334,72.334V389.2077a72.4164,72.4164,0,0,0,72.334,72.334H364.6221a72.4164,72.4164,0,0,0,72.334-72.334V171.9636A72.4164,72.4164,0,0,0,364.6221,99.63ZM306.9265,81.6612a15.2028,15.2028,0,0,1,15.2029-15.2028h4.3a15.2028,15.2028,0,0,1,15.2028,15.2028V132.278A15.2028,15.2028,0,0,1,326.43,147.4808h-4.3a15.2028,15.2028,0,0,1-15.2029-15.2028Zm-136.5591,0A15.2028,15.2028,0,0,1,185.57,66.4584h4.3a15.2028,15.2028,0,0,1,15.2029,15.2028V132.278a15.2028,15.2028,0,0,1-15.2029,15.2028h-4.3a15.2028,15.2028,0,0,1-15.2028-15.2028ZM420.9561,389.2077a56.398,56.398,0,0,1-56.334,56.334H147.3779a56.398,56.398,0,0,1-56.334-56.334V200.1065H420.9561Z"/>
  </g>
</svg>
